<svg width="19" height="19" viewBox="0 0 19 19" fill="none" xmlns="http://www.w3.org/2000/svg">
<path d="M9.5 0.3125C4.42637 0.3125 0.3125 4.42637 0.3125 9.5C0.3125 14.5736 4.42637 18.6875 9.5 18.6875C14.5736 18.6875 18.6875 14.5736 18.6875 9.5C18.6875 4.42637 14.5736 0.3125 9.5 0.3125ZM9.5 17.1289C5.2877 17.1289 1.87109 13.7123 1.87109 9.5C1.87109 5.2877 5.2877 1.87109 9.5 1.87109C13.7123 1.87109 17.1289 5.2877 17.1289 9.5C17.1289 13.7123 13.7123 17.1289 9.5 17.1289Z" fill="white" fill-opacity="0.7"/>
<path d="M13.0827 12.0963L10.1583 9.98193V4.90625C10.1583 4.81602 10.0845 4.74219 9.99424 4.74219H9.00781C8.91758 4.74219 8.84375 4.81602 8.84375 4.90625V10.5541C8.84375 10.6074 8.86836 10.6566 8.91143 10.6874L12.3034 13.1606C12.3772 13.214 12.4798 13.1976 12.5331 13.1258L13.1196 12.326C13.1729 12.2501 13.1565 12.1476 13.0827 12.0963V12.0963Z" fill="white" fill-opacity="0.7"/>
</svg>

