<svg width="20" height="22" viewBox="0 0 20 22" fill="none" xmlns="http://www.w3.org/2000/svg">
<path d="M17.2907 9.10719C17.3147 6.21519 14.8517 3.56419 11.8007 3.19719C11.7348 3.18897 11.6691 3.17896 11.6037 3.16719C11.4503 3.13783 11.2948 3.1211 11.1387 3.11719C10.5127 3.11719 10.3457 3.55719 10.3017 3.81819C10.2587 4.07319 10.2997 4.28819 10.4227 4.45519C10.6297 4.73619 10.9947 4.78619 11.2877 4.82619C11.3727 4.83819 11.4537 4.84919 11.5217 4.86419C14.2637 5.47719 15.1867 6.44019 15.6377 9.15919C15.6487 9.22519 15.6537 9.30719 15.6597 9.39419C15.6797 9.71919 15.7197 10.3952 16.4467 10.3952C16.5067 10.3952 16.5727 10.3902 16.6407 10.3802C17.3167 10.2772 17.2957 9.65919 17.2857 9.36219C17.2827 9.27819 17.2797 9.19919 17.2877 9.14619C17.2893 9.13292 17.29 9.11955 17.2897 9.10619L17.2907 9.10719Z" fill="#353333"/>
<path d="M10.96 2.136C11.042 2.142 11.118 2.148 11.182 2.157C15.685 2.85 17.756 4.983 18.329 9.521C18.339 9.598 18.341 9.692 18.342 9.791C18.348 10.146 18.36 10.884 19.152 10.899H19.176C19.425 10.899 19.622 10.824 19.764 10.676C20.01 10.419 19.994 10.036 19.979 9.728C19.976 9.652 19.973 9.581 19.973 9.518C20.031 4.878 16.013 0.669 11.377 0.513C11.357 0.513 11.339 0.513 11.321 0.516C11.3028 0.518302 11.2844 0.519304 11.266 0.519C11.219 0.519 11.163 0.515 11.102 0.511C11.03 0.506 10.947 0.5 10.862 0.5C10.124 0.5 9.98401 1.025 9.96601 1.338C9.92501 2.061 10.624 2.112 10.96 2.136V2.136ZM18.112 15.386C18.0154 15.3126 17.9197 15.2379 17.825 15.162C17.333 14.766 16.81 14.402 16.305 14.049L15.99 13.829C15.342 13.374 14.76 13.153 14.21 13.153C13.468 13.153 12.822 13.563 12.288 14.37C12.052 14.728 11.765 14.902 11.412 14.902C11.1668 14.8934 10.9262 14.8331 10.706 14.725C8.61601 13.777 7.12201 12.323 6.26801 10.404C5.85501 9.476 5.98901 8.87 6.71501 8.376C7.12801 8.096 7.89501 7.575 7.84201 6.576C7.78001 5.443 5.27901 2.032 4.22501 1.645C3.77443 1.48064 3.28052 1.47923 2.82901 1.641C1.61801 2.048 0.750009 2.764 0.315009 3.709C-0.104991 4.623 -0.0849909 5.696 0.369009 6.812C1.68401 10.039 3.53201 12.853 5.86301 15.175C8.14401 17.448 10.948 19.309 14.196 20.708C14.489 20.834 14.796 20.903 15.021 20.953C15.097 20.97 15.163 20.985 15.211 20.998C15.2374 21.0051 15.2647 21.0088 15.292 21.009H15.318C16.846 21.009 18.681 19.613 19.244 18.022C19.738 16.628 18.836 15.939 18.112 15.386V15.386ZM11.636 5.823C11.375 5.829 10.83 5.843 10.639 6.397C10.549 6.657 10.56 6.881 10.671 7.066C10.833 7.336 11.144 7.42 11.426 7.466C12.451 7.63 12.978 8.196 13.083 9.249C13.132 9.739 13.463 10.082 13.886 10.082C13.9181 10.082 13.9502 10.0799 13.982 10.076C14.492 10.016 14.739 9.641 14.717 8.962C14.725 8.254 14.355 7.45 13.724 6.81C13.092 6.168 12.33 5.806 11.636 5.823V5.823Z" fill="#353333"/>
</svg>

