<svg width="34" height="24" viewBox="0 0 34 24" fill="none" xmlns="http://www.w3.org/2000/svg">
<path d="M33.2925 4.21877C33.1 3.53201 32.725 2.91025 32.2074 2.4196C31.6751 1.91385 31.0228 1.55208 30.3119 1.36843C27.6514 0.667181 16.9924 0.667181 16.9924 0.667181C12.5488 0.616624 8.10623 0.838987 3.68987 1.33301C2.97898 1.53023 2.32784 1.90009 1.79437 2.40968C1.27021 2.91402 0.890541 3.53593 0.692208 4.21735C0.215773 6.78399 -0.015712 9.39009 0.000874343 12.0005C-0.0161257 14.6086 0.214791 17.2139 0.692208 19.7837C0.886291 20.4623 1.26454 21.0814 1.79012 21.5814C2.31571 22.0815 2.97021 22.4428 3.68987 22.634C6.38579 23.3339 16.9924 23.3339 16.9924 23.3339C21.4416 23.3845 25.8898 23.1621 30.3119 22.668C31.0228 22.4844 31.6751 22.1226 32.2074 21.6169C32.7315 21.1168 33.1041 20.4949 33.2911 19.8177C33.78 17.252 34.0177 14.6449 34.0009 12.0331C34.0376 9.41029 33.8002 6.79082 33.2925 4.21735V4.21877ZM13.6037 16.8512V7.15127L22.472 12.0019L13.6037 16.8512Z" fill="white" fill-opacity="0.23"/>
</svg>
