<svg width="26" height="26" viewBox="0 0 26 26" fill="none" xmlns="http://www.w3.org/2000/svg">
<path d="M25.6004 22.8004V3.20039C25.6004 1.66039 24.3362 0.400391 22.7934 0.400391H3.20739C1.59739 0.400391 0.400391 1.59459 0.400391 3.20039V22.8004C0.400391 24.4076 1.59739 25.6004 3.20739 25.6004H22.7934C23.5363 25.5993 24.2486 25.3042 24.7745 24.7795C25.3005 24.2548 25.5974 23.5433 25.6004 22.8004ZM20.258 15.2502C20.258 15.2502 21.8428 16.814 22.2334 17.5392C22.2446 17.5546 22.2488 17.5686 22.253 17.5742C22.4112 17.8402 22.4518 18.0502 22.372 18.2042C22.2404 18.4604 21.7924 18.5892 21.6398 18.6004H18.8412C18.6452 18.6004 18.2392 18.55 17.7464 18.2098C17.3684 17.9466 16.9946 17.5112 16.6306 17.087C16.0874 16.457 15.617 15.911 15.1438 15.911C15.0838 15.9108 15.0241 15.9208 14.9674 15.9404C14.6076 16.0552 14.1512 16.5662 14.1512 17.9312C14.1512 18.3582 13.8152 18.6018 13.5772 18.6018H12.2948C11.858 18.6018 9.58299 18.4492 7.56839 16.3226C5.09599 13.7186 2.87559 8.49519 2.85599 8.44899C2.71599 8.11159 3.00579 7.92819 3.32079 7.92819H6.14879C6.52819 7.92819 6.64999 8.15779 6.73679 8.36359C6.83479 8.59739 7.20439 9.54099 7.80919 10.6022C8.79339 12.3284 9.39959 13.0312 9.88259 13.0312C9.9729 13.0307 10.0616 13.0071 10.1402 12.9626C10.7716 12.614 10.654 10.3628 10.626 9.89799C10.626 9.80979 10.6246 8.89139 10.3026 8.45039C10.0702 8.13119 9.67679 8.00939 9.43879 7.96319C9.53584 7.82946 9.66354 7.72096 9.81119 7.64679C10.2438 7.43119 11.0236 7.40039 11.7992 7.40039H12.2304C13.0718 7.41159 13.2902 7.46619 13.594 7.54319C14.2086 7.69019 14.2212 8.08919 14.1666 9.44719C14.1512 9.83359 14.1344 10.2718 14.1344 10.7856C14.1344 10.8962 14.1302 11.018 14.1302 11.144C14.1106 11.8384 14.0882 12.6238 14.5782 12.9458C14.6416 12.9855 14.7148 13.0068 14.7896 13.0074C14.9604 13.0074 15.4714 13.0074 16.856 10.6316C17.465 9.58299 17.934 8.34539 17.9662 8.25299C18.0151 8.15309 18.0859 8.06551 18.1734 7.99679C18.2451 7.95954 18.325 7.94078 18.4058 7.94219H21.7308C22.0948 7.94219 22.3412 7.99679 22.3874 8.13539C22.4672 8.35799 22.372 9.03699 20.853 11.0894L20.1768 11.9854C18.7992 13.7886 18.7992 13.881 20.258 15.2502Z" fill="white" fill-opacity="0.23"/>
</svg>
